<svg width="160" height="240" viewBox="0 0 160 240" fill="none" xmlns="http://www.w3.org/2000/svg">
<defs>
    <radialGradient id="paint0_radial_901_231" cx="0" cy="0" r="1" gradientUnits="userSpaceOnUse" gradientTransform="translate(27 27) rotate(45) scale(149.906)">
        <stop offset="0.576" stop-color="#FF0082"/>
        <stop offset="0.753" stop-color="#FF0082"/>
        <stop offset="1" stop-color="#FF0082"/>
    </radialGradient>
    <clipPath id="clip0_901_231">
        <rect width="106" height="106" fill="white" transform="translate(27 27)"/>
    </clipPath>
</defs>
<circle cx="80" cy="80" r="80" fill="#FF0082"/>
<path d="M80 240L10.7179 120L149.282 120L80 240Z" fill="#FF0082"/>
<g clip-path="url(#clip0_901_231)">
<mask id="mask0_901_231" style="mask-type:luminance" maskUnits="userSpaceOnUse" x="27" y="27" width="106" height="106">
<path d="M27 27H133V133H27V27Z" fill="white"/>
</mask>
<g mask="url(#mask0_901_231)">
<path d="M120.28 27H39.72C32.6946 27 27 32.6946 27 39.72V120.28C27 127.305 32.6946 133 39.72 133H120.28C127.305 133 133 127.305 133 120.28V39.72C133 32.6946 127.305 27 120.28 27Z" fill="url(#paint0_radial_901_231)"/>
<path fill-rule="evenodd" clip-rule="evenodd" d="M31.5641 40.5662C32.0598 40.0697 32.6484 39.6758 33.2963 39.4071C33.9442 39.1383 34.6387 39 35.3401 39C36.0414 39 36.7359 39.1383 37.3838 39.4071C38.0317 39.6758 38.6203 40.0697 39.116 40.5662L56.9087 58.3727C57.4048 58.8688 57.7984 59.4579 58.0669 60.1063C58.3355 60.7547 58.4737 61.4497 58.4737 62.1516C58.4737 62.8535 58.3355 63.5485 58.0669 64.1969C57.7984 64.8453 57.4048 65.4344 56.9087 65.9305L39.116 83.7369C38.1146 84.7392 36.7563 85.3022 35.3401 85.3022C33.9238 85.3022 32.5655 84.7392 31.5641 83.7369C30.5626 82.7347 30 81.3754 30 79.958C30 78.5407 30.5626 77.1813 31.5641 76.1791L45.5846 62.1516L31.566 48.1241C31.0699 47.628 30.6763 47.0389 30.4078 46.3905C30.1393 45.7421 30.001 45.047 30.001 44.3451C30.001 43.6432 30.1393 42.9482 30.4078 42.2998C30.6763 41.6514 31.0679 41.0623 31.5641 40.5662ZM128.435 40.5662C128.931 41.0623 129.325 41.6514 129.593 42.2998C129.862 42.9482 130 43.6432 130 44.3451C130 45.047 129.862 45.7421 129.593 46.3905C129.325 47.0389 128.931 47.628 128.435 48.1241L114.416 62.1516L128.433 76.1791C129.434 77.1808 129.997 78.5396 129.998 79.9566C129.998 81.3736 129.436 82.7327 128.435 83.735C127.434 84.7372 126.076 85.3005 124.66 85.3008C123.245 85.3012 121.886 84.7387 120.885 83.7369L103.092 65.9305C102.596 65.4344 102.203 64.8453 101.934 64.1969C101.666 63.5485 101.527 62.8535 101.527 62.1516C101.527 61.4497 101.666 60.7547 101.934 60.1063C102.203 59.4579 102.596 58.8688 103.092 58.3727L120.885 40.5662C121.886 39.5646 123.244 39.002 124.659 39.002C126.074 39.002 127.434 39.5646 128.435 40.5662ZM71.1111 74.8614C72.4623 74.4391 73.9258 74.5712 75.1796 75.2287C76.4335 75.8862 77.375 77.0151 77.7972 78.3673C77.9969 79.0083 78.4753 79.5109 79.6061 79.9105C80.244 80.1333 80.909 80.269 81.5831 80.3142C81.6483 80.3082 81.759 80.2983 81.9033 80.2785C82.2552 80.2291 82.7396 80.1302 83.2516 79.9402C84.252 79.5663 85.104 78.9628 85.6042 77.8193C85.8851 77.1765 86.2898 76.5954 86.7951 76.1091C87.3004 75.6228 87.8965 75.2409 88.5493 74.9851C89.2021 74.7294 89.8988 74.6048 90.5997 74.6186C91.3006 74.6323 91.992 74.7841 92.6343 75.0652C93.2766 75.3463 93.8572 75.7513 94.3431 76.257C94.8291 76.7627 95.2107 77.3593 95.4662 78.0126C95.7217 78.6659 95.8462 79.3632 95.8325 80.0646C95.8187 80.7661 95.6671 81.4579 95.3862 82.1007C93.3954 86.6552 89.7993 88.9008 86.9742 89.9514C85.4431 90.5196 83.8388 90.866 82.2098 90.9802C82.0379 90.9907 81.8659 90.9973 81.6938 91H81.6048C81.6009 91 81.5989 91 81.5989 85.6581C81.5989 91 81.5969 91 81.5949 91H81.5099C81.3365 90.9972 81.1631 90.9906 80.99 90.9802C79.2974 90.8796 77.6272 90.5427 76.0278 89.9791C73.1573 88.9562 69.1875 86.6097 67.606 81.5527C67.3971 80.883 67.322 80.1787 67.3851 79.48C67.4482 78.7813 67.6482 78.1019 67.9737 77.4805C68.2992 76.8592 68.7438 76.3081 69.2821 75.8587C69.8204 75.4093 70.4419 75.0704 71.1111 74.8614Z" fill="white"/>
</g>
</g>
</svg>
